<mxfile host="app.diagrams.net" agent="Mozilla/5.0 (Windows NT 10.0; Win64; x64) AppleWebKit/537.36 (KHTML, like Gecko) Chrome/137.0.0.0 Safari/537.36" version="27.1.5">
  <diagram name="Página-1" id="KaieEYhAneBdvnFzcM9z">
    <mxGraphModel dx="872" dy="534" grid="1" gridSize="10" guides="1" tooltips="1" connect="1" arrows="1" fold="1" page="1" pageScale="1" pageWidth="827" pageHeight="1169" math="0" shadow="0">
      <root>
        <mxCell id="0" />
        <mxCell id="1" parent="0" />
        <mxCell id="9pLMHtDcRqhob4lEy8aN-1" value="&lt;h1 style=&quot;margin-top: 0px;&quot;&gt;&lt;font style=&quot;vertical-align: inherit;&quot;&gt;&lt;font style=&quot;vertical-align: inherit;&quot;&gt;&lt;font style=&quot;vertical-align: inherit;&quot;&gt;&lt;font style=&quot;vertical-align: inherit;&quot;&gt;&lt;font style=&quot;vertical-align: inherit;&quot;&gt;&lt;font style=&quot;vertical-align: inherit;&quot;&gt;Minimundo Padaria&lt;/font&gt;&lt;/font&gt;&lt;/font&gt;&lt;/font&gt;&lt;/font&gt;&lt;/font&gt;&lt;/h1&gt;&lt;p&gt;&lt;font style=&quot;vertical-align: inherit;&quot;&gt;&lt;font style=&quot;vertical-align: inherit;&quot;&gt;&lt;font style=&quot;vertical-align: inherit;&quot;&gt;&lt;font style=&quot;vertical-align: inherit;&quot;&gt;&lt;font style=&quot;vertical-align: inherit;&quot;&gt;&lt;font style=&quot;vertical-align: inherit;&quot;&gt;Os clientes do banco podem ser pessoas interessadas em fazer uma compra na&amp;nbsp; &lt;/font&gt;&lt;/font&gt;&lt;/font&gt;&lt;/font&gt;&lt;font style=&quot;vertical-align: inherit;&quot;&gt;&lt;font style=&quot;vertical-align: inherit;&quot;&gt;&lt;font style=&quot;vertical-align: inherit;&quot;&gt;&lt;font style=&quot;vertical-align: inherit;&quot;&gt;padaria. Para se cadastrar no banco dos clientes deverá apresentar cpf, nome, e-mail e&amp;nbsp; &lt;/font&gt;&lt;/font&gt;&lt;/font&gt;&lt;/font&gt;&lt;font style=&quot;vertical-align: inherit;&quot;&gt;&lt;font style=&quot;vertical-align: inherit;&quot;&gt;&lt;font style=&quot;vertical-align: inherit;&quot;&gt;&lt;font style=&quot;vertical-align: inherit;&quot;&gt;telefone. O banco atribui um código próprio para identificar qualquer um dos seus&amp;nbsp; &lt;/font&gt;&lt;/font&gt;&lt;/font&gt;&lt;/font&gt;&lt;font style=&quot;vertical-align: inherit;&quot;&gt;&lt;font style=&quot;vertical-align: inherit;&quot;&gt;&lt;font style=&quot;vertical-align: inherit;&quot;&gt;&lt;font style=&quot;vertical-align: inherit;&quot;&gt;clientes, sendo este o seu cpf. Cada cliente está associado a uma ou mais compra/venda.&amp;nbsp; &lt;/font&gt;&lt;/font&gt;&lt;/font&gt;&lt;/font&gt;&lt;font style=&quot;vertical-align: inherit;&quot;&gt;&lt;font style=&quot;vertical-align: inherit;&quot;&gt;&lt;font style=&quot;vertical-align: inherit;&quot;&gt;&lt;font style=&quot;vertical-align: inherit;&quot;&gt;Cada compra/venda possui um código que a identifica, seus dados de ocorrência e uma&amp;nbsp; &lt;/font&gt;&lt;/font&gt;&lt;/font&gt;&lt;/font&gt;&lt;font style=&quot;vertical-align: inherit;&quot;&gt;&lt;font style=&quot;vertical-align: inherit;&quot;&gt;&lt;font style=&quot;vertical-align: inherit;&quot;&gt;&lt;font style=&quot;vertical-align: inherit;&quot;&gt;quantidade. Além de existir um fornecedor que possua um CNPJ, nome e endereço. Há também uma relação de fornecimento que associa fornecedores a produtos. Além de&amp;nbsp; &lt;/font&gt;&lt;/font&gt;&lt;/font&gt;&lt;/font&gt;&lt;font style=&quot;vertical-align: inherit;&quot;&gt;&lt;font style=&quot;vertical-align: inherit;&quot;&gt;&lt;font style=&quot;vertical-align: inherit;&quot;&gt;&lt;font style=&quot;vertical-align: inherit;&quot;&gt;uma relação que especifica a quantidade de produtos que um funcionário produziu em&amp;nbsp; &lt;/font&gt;&lt;/font&gt;&lt;/font&gt;&lt;/font&gt;&lt;font style=&quot;vertical-align: inherit;&quot;&gt;&lt;font style=&quot;vertical-align: inherit;&quot;&gt;&lt;font style=&quot;vertical-align: inherit;&quot;&gt;&lt;font style=&quot;vertical-align: inherit;&quot;&gt;um determinado mês. Existe uma relação em que um funcionário possui ou não um&amp;nbsp; &lt;/font&gt;&lt;/font&gt;&lt;/font&gt;&lt;/font&gt;&lt;font style=&quot;vertical-align: inherit;&quot;&gt;&lt;font style=&quot;vertical-align: inherit;&quot;&gt;&lt;font style=&quot;vertical-align: inherit;&quot;&gt;&lt;font style=&quot;vertical-align: inherit;&quot;&gt;supervisor. O funcionário possui no banco além de cpf e nome, o número da carteira de&amp;nbsp; &lt;/font&gt;&lt;/font&gt;&lt;/font&gt;&lt;/font&gt;&lt;font style=&quot;vertical-align: inherit;&quot;&gt;&lt;font style=&quot;vertical-align: inherit;&quot;&gt;&lt;font style=&quot;vertical-align: inherit;&quot;&gt;&lt;font style=&quot;vertical-align: inherit;&quot;&gt;trabalho, o seu cargo (Gerente, Padeiro ou Caixa) e o valor do seu salário, sendo então&amp;nbsp; &lt;/font&gt;&lt;/font&gt;&lt;/font&gt;&lt;/font&gt;&lt;font style=&quot;vertical-align: inherit;&quot;&gt;&lt;font style=&quot;vertical-align: inherit;&quot;&gt;&lt;font style=&quot;vertical-align: inherit;&quot;&gt;&lt;font style=&quot;vertical-align: inherit;&quot;&gt;associado à compra/venda de um ou mais determinados produtos e à produção de&amp;nbsp; &lt;/font&gt;&lt;/font&gt;&lt;/font&gt;&lt;/font&gt;&lt;font style=&quot;vertical-align: inherit;&quot;&gt;&lt;font style=&quot;vertical-align: inherit;&quot;&gt;&lt;font style=&quot;vertical-align: inherit;&quot;&gt;&lt;font style=&quot;vertical-align: inherit;&quot;&gt;nenhum ou vários produtos. O produto possui um código de referência, seu tipo, nome&amp;nbsp;&lt;/font&gt;&lt;/font&gt;&lt;/font&gt;&lt;/font&gt;&lt;font style=&quot;vertical-align: inherit;&quot;&gt;&lt;font style=&quot;vertical-align: inherit;&quot;&gt;&lt;font style=&quot;vertical-align: inherit;&quot;&gt;&lt;font style=&quot;vertical-align: inherit;&quot;&gt;e valor.&lt;/font&gt;&lt;/font&gt;&lt;/font&gt;&lt;/font&gt;&lt;/font&gt;&lt;/font&gt;&lt;/p&gt;" style="text;html=1;whiteSpace=wrap;overflow=hidden;rounded=0;" vertex="1" parent="1">
          <mxGeometry width="820" height="180" as="geometry" />
        </mxCell>
      </root>
    </mxGraphModel>
  </diagram>
</mxfile>
